<svg width="256" height="256" viewBox="0 0 256 256" fill="none" xmlns="http://www.w3.org/2000/svg" role="img" aria-label="CFDesk logo">
  <rect width="256" height="256" rx="56" fill="#13201F"/>
  <path d="M75 157C58.984 157 46 144.016 46 128C46 112.383 58.346 99.65 73.81 99.029C81.214 84.06 96.63 74 114 74C136.487 74 155.15 90.494 158.491 112.042C162.198 110.708 166.194 110 170.333 110C189.474 110 205 125.526 205 144.667C205 163.808 189.474 179.333 170.333 179.333H78.5C66.074 179.333 56 169.26 56 156.833C56 145.81 63.915 136.62 74.37 134.683" fill="#A8F1E7"/>
</svg>
